<?xml version="1.0"?><svg xmlns="http://www.w3.org/2000/svg" xmlns:xlink="http://www.w3.org/1999/xlink" version="1.1" viewBox="0 0 24 24" style="enable-background:new 0 0 24 24;" xml:space="preserve"><style type="text/css">
	.st0{opacity:0.2;fill:none;stroke:#000000;stroke-width:0.05;stroke-miterlimit:10;}
</style><g id="grid_system"/><g id="Layer_2"><circle cx="18" cy="5" r="3"/><path d="M19.90088,8.97266c-0.55127,0.03613-0.96875,0.5127-0.93262,1.06348C18.98926,10.35742,19,10.67871,19,11   c0,1.41992-0.20508,2.84668-0.60791,4.23242c-0.1665,0.55469-0.63672,0.98047-1.22607,1.11133   c-2.56152,0.56152-5.2749,0.76172-7.97363,0.59863c-0.68652-0.05176-1.28076,0.42578-1.41455,1.08594l-0.3335,1.66113   c-0.03418,0.16895-0.15527,0.23828-0.22461,0.26465c-0.06934,0.02832-0.20654,0.05566-0.34521-0.04785   c-1.33887-1.00488-2.36621-2.35938-2.97021-3.91797l-0.30078-0.76953c-0.81152-2.7666-0.80957-5.69141,0.00439-8.45215   c0.1665-0.55371,0.63672-0.97949,1.22363-1.10938C7.5,5.0791,10.23633,4.87988,12.96338,5.06348   c0.55566,0.02734,1.02783-0.37988,1.06494-0.93066s-0.37939-1.02832-0.93018-1.06543   C10.18359,2.87109,7.25977,3.08496,4.4043,3.70312c-1.29834,0.28711-2.3374,1.24023-2.71338,2.49316   c-0.92432,3.13477-0.92627,6.44922-0.0083,9.57812c0.0083,0.0293,0.03174,0.09766,0.04248,0.12598l0.31445,0.81055   c0.73975,1.9082,1.99658,3.56543,3.63477,4.79492c0.4165,0.3125,0.91162,0.47363,1.41309,0.47363   c0.28418,0,0.56982-0.05176,0.84521-0.15625c0.76172-0.29102,1.31201-0.94141,1.47266-1.74023l0.22412-1.11523   c2.68604,0.11914,5.39893-0.10938,7.96631-0.6709c1.29834-0.28711,2.33789-1.24121,2.71484-2.49805   C20.76807,14.22266,21,12.6084,21,11c0-0.36426-0.01172-0.73047-0.03564-1.09473   C20.92773,9.35352,20.44824,8.94922,19.90088,8.97266z"/></g></svg>