<?xml version="1.0"?><svg xmlns="http://www.w3.org/2000/svg" xmlns:xlink="http://www.w3.org/1999/xlink" version="1.1" viewBox="0 0 24 24" style="enable-background:new 0 0 24 24;" xml:space="preserve"><style type="text/css">
	.st0{opacity:0.2;fill:none;stroke:#000000;stroke-width:0.05;stroke-miterlimit:10;}
</style><g id="grid_system"/><g id="Layer_2"><path d="M20.62939,6.96289c-0.13574-0.95703-0.77588-1.77344-1.6665-2.13086L18.84229,4.7832   c-2.31641-0.93262-4.86865-0.93262-7.18408,0l-0.65839,0.26447l-0.66144-0.26544C8.02051,3.85156,5.46924,3.85254,3.15234,4.78516   l-0.11279,0.0459C2.146,5.18945,1.50635,6.00684,1.37061,6.96387L1.35645,7.06348   c-0.47559,3.34668-0.47559,6.73926,0.00049,10.09082c0.08057,0.56738,0.41064,1.05664,0.90625,1.34375   c0.28027,0.16211,0.59033,0.24609,0.91211,0.24609c0.24561,0,0.49756-0.04883,0.74805-0.14844   c1.52197-0.6084,3.16406-0.71289,4.74805-0.30078c0.5376,0.14258,1.08057-0.18262,1.21924-0.7168   c0.13916-0.53418-0.18213-1.08008-0.71631-1.21875c-1.93994-0.50391-3.94727-0.39648-5.86279,0.3291   C2.8877,13.58691,2.896,10.44434,3.33691,7.34375l0.01416-0.09961C3.38672,6.99316,3.55273,6.78027,3.7876,6.68555l0.11377-0.0459   C5.73438,5.89941,7.75635,5.90039,9.59326,6.6377L10,6.8009v8.08582c0,0.55273,0.44775,1,1,1s1-0.44727,1-1V6.80078   l0.40381-0.16211c1.83447-0.73828,3.85645-0.73828,5.68994-0.00098l0.12158,0.04883   c0.23193,0.09375,0.39795,0.30664,0.43359,0.55664l0.01416,0.10059c0.07715,0.54688,0.58545,0.93066,1.12939,0.85059   c0.54736-0.07715,0.92822-0.58301,0.85107-1.12988L20.62939,6.96289z"/><path d="M21.93408,20.18262l-0.06934-0.25781c-0.33643-1.31836-1.29297-2.42285-2.55859-2.95312v0.00098   c-0.04297-0.02051-0.0835-0.03809-0.11084-0.04883c-1.7417-0.67969-3.65479-0.67871-5.39258-0.00098   c-1.32324,0.51367-2.32178,1.63574-2.67139,3.00293l-0.06738,0.26562c-0.14551,0.57324-0.03613,1.18262,0.2998,1.67285   c0.35059,0.51074,0.91064,0.84668,1.5376,0.92188C14.09131,22.92773,15.30176,23,16.49854,23   c1.19775,0,2.40918-0.07227,3.60059-0.21387c0.62549-0.0752,1.18555-0.41016,1.53613-0.91992   c0.33594-0.48828,0.44629-1.09766,0.30225-1.66992C21.93652,20.19141,21.93506,20.18652,21.93408,20.18262z M19.9873,20.73242   c-0.01172,0.01758-0.04785,0.05859-0.12598,0.06738c-2.22412,0.26562-4.49951,0.26562-6.72266,0   c-0.07812-0.00879-0.11377-0.0498-0.13623-0.11621l0.06689-0.26367c0.18945-0.74219,0.73438-1.35156,1.4585-1.63281   c0.63818-0.24902,1.30127-0.375,1.9707-0.375s1.33203,0.12598,1.91455,0.35156c0.01221,0.00488,0.03955,0.0166,0.06445,0.02734   c0.01807,0.00879,0.03613,0.0166,0.05518,0.02441c0.70068,0.29492,1.20898,0.87891,1.39697,1.61426l0.07178,0.26855   L19.9873,20.73242z"/><path d="M16.5,8c-2.20557,0-4,1.82031-4,4.05859s1.79443,4.05859,4,4.05859s4-1.82031,4-4.05859S18.70557,8,16.5,8z M16.5,14.11719   c-1.10303,0-2-0.92383-2-2.05859S15.39697,10,16.5,10s2,0.92383,2,2.05859S17.60303,14.11719,16.5,14.11719z"/></g></svg>